# xmcd CD database file
#
# Track frame offsets:
#	150
#	13413
#	32268
#	47438
#	63783
#	79640
#	94825
#	112438
#	126033
#	139535
#	154158
#
# Disc length: 2282 seconds
#
# Revision: 2
# Processed by: cddbd v1.5.2PL0 Copyright (c) Steve Scherf et al.
# Submitted via: CDex 1.51
#
DISCID=8708e80b
DTITLE=Notations - Notations
DYEAR=1900
DGENRE=Soul
TTITLE0=It's All Right (This Feeling)
TTITLE1=Take It Slow
TTITLE2=Bills Breakup Homes
TTITLE3=Make Me Twice The Man
TTITLE4=There I Go
TTITLE5=Since You've Been Gone
TTITLE6=It Only Hurts For A Little While
TTITLE7=I'm Loosing
TTITLE8=Make Believin
TTITLE9=Think Before You Stop
TTITLE10=Superpeople
EXTD=
EXTT0=
EXTT1=
EXTT2=
EXTT3=
EXTT4=
EXTT5=
EXTT6=
EXTT7=
EXTT8=
EXTT9=
EXTT10=
PLAYORDER=
